<svg width="23" height="23" viewBox="0 0 23 23" fill="none" xmlns="http://www.w3.org/2000/svg">
<path d="M16.7986 0.417786C17.0994 0.417844 17.3438 0.544291 17.5632 0.711731C17.7731 0.871855 18.0043 1.10495 18.2742 1.37482L20.7292 3.8299C20.9991 4.09975 21.2322 4.33102 21.3923 4.54083C21.5598 4.76028 21.6862 5.00471 21.6863 5.30548C21.6863 5.60633 21.5598 5.85064 21.3923 6.07013C21.2322 6.28 20.9992 6.51209 20.7292 6.78204L7.78687 19.7234C7.64005 19.8703 7.51466 20.0013 7.35522 20.0916C7.19587 20.1818 7.01941 20.2229 6.81812 20.2733L1.51929 21.5975C1.38224 21.6317 1.23313 21.6703 1.10913 21.6824C0.979948 21.6951 0.761504 21.6922 0.58667 21.5174C0.411847 21.3426 0.408994 21.1241 0.421631 20.9949C0.433779 20.8709 0.472331 20.7218 0.506592 20.5848L1.83179 15.2859C1.88208 15.0848 1.92228 14.9081 2.01245 14.7488C2.10272 14.5894 2.2338 14.464 2.38062 14.3172L15.322 1.37482C15.592 1.10487 15.8241 0.87186 16.0339 0.711731C16.2534 0.544275 16.4977 0.417786 16.7986 0.417786Z" stroke="#FF41B5" stroke-width="0.834884"/>
<line x1="12.1699" y1="4.36834" x2="17.7358" y2="9.93423" stroke="#FF62C2" stroke-width="0.834884"/>
</svg>
