<svg width="22" height="24" viewBox="0 0 22 24" fill="none" xmlns="http://www.w3.org/2000/svg">
<path fill-rule="evenodd" clip-rule="evenodd" d="M8.85629 0.829296C8.85305 0.832632 8.8492 0.838314 8.84697 0.847262L8.84669 0.848373L7.12926 7.64634C7.10058 7.75985 7.02452 7.8559 6.9201 7.91047L0.847507 11.0837C0.843434 11.0859 0.83155 11.0954 0.830199 11.1189C0.829743 11.1454 0.843335 11.1663 0.856627 11.1752L6.65332 15.0882C6.74684 15.1513 6.81031 15.2496 6.82903 15.3602L8.00993 22.3386C8.01446 22.3654 8.03125 22.3803 8.04231 22.3847C8.04792 22.3869 8.05179 22.3869 8.0542 22.3865C8.05658 22.3862 8.05953 22.3852 8.06312 22.3822L13.3624 18.0029C13.4555 17.9259 13.5779 17.8932 13.6974 17.9132L20.5001 19.053C20.5034 19.0535 20.5058 19.0531 20.5079 19.0523C20.51 19.0515 20.5134 19.0496 20.5171 19.0448C20.5256 19.0339 20.5317 19.0121 20.5228 18.9885L18.0011 12.3692C17.9611 12.2642 17.9661 12.1476 18.0148 12.0464L21.0382 5.77232L21.0384 5.77194C21.0463 5.75553 21.0461 5.73106 21.0333 5.71116C21.0201 5.69052 21.0045 5.68813 20.9998 5.68833L14.142 5.97694C14.0241 5.98191 13.9096 5.93687 13.8272 5.85309L8.89352 0.835836L8.89271 0.835015C8.87962 0.821631 8.86842 0.822855 8.86562 0.823605C8.86256 0.824426 8.85947 0.826031 8.85629 0.829296ZM8.04128 0.648932C8.11598 0.350808 8.34446 0.110647 8.64933 0.0290246C8.9537 -0.0524653 9.27286 0.0415946 9.4883 0.26152L9.48883 0.262062L14.2923 5.14684L20.9648 4.86602C21.2796 4.85276 21.5689 5.01268 21.7336 5.26889C21.8986 5.52584 21.9203 5.85172 21.7871 6.12738L18.8403 12.2426L21.2994 18.6977C21.4077 18.982 21.3631 19.3061 21.1733 19.5489C20.9815 19.7943 20.6711 19.9169 20.3602 19.8643L13.7472 18.7563L8.5939 23.015C8.35179 23.2146 8.02195 23.2643 7.73115 23.1478C7.44205 23.032 7.24158 22.7728 7.19118 22.4749L6.03959 15.6697L0.389997 11.856C0.133422 11.6832 -0.00970747 11.3903 0.000512771 11.09L0.000607617 11.0875C0.0128457 10.7839 0.181769 10.5013 0.460524 10.3556L6.36901 7.26814L8.0411 0.649665L8.04128 0.648932Z" fill="#FF89D3"/>
<path d="M8.84697 0.847262C8.8492 0.838314 8.85305 0.832632 8.85629 0.829296C8.85947 0.826031 8.86256 0.824426 8.86562 0.823605C8.86842 0.822855 8.87962 0.821631 8.89271 0.835015L8.89352 0.835836L13.8272 5.85309C13.9096 5.93687 14.0241 5.98191 14.142 5.97694L20.9998 5.68833C21.0045 5.68813 21.0201 5.69052 21.0333 5.71116C21.0461 5.73106 21.0463 5.75553 21.0384 5.77194L21.0382 5.77232L18.0148 12.0464C17.9661 12.1476 17.9611 12.2642 18.0011 12.3692L20.5228 18.9885C20.5317 19.0121 20.5256 19.0339 20.5171 19.0448C20.5134 19.0496 20.51 19.0515 20.5079 19.0523C20.5058 19.0531 20.5034 19.0535 20.5001 19.053L13.6974 17.9132C13.5779 17.8932 13.4555 17.9259 13.3624 18.0029L8.06312 22.3822C8.05953 22.3852 8.05658 22.3862 8.0542 22.3865C8.05179 22.3869 8.04792 22.3869 8.04231 22.3847C8.03125 22.3803 8.01446 22.3654 8.00993 22.3386L6.82903 15.3602C6.81031 15.2496 6.74684 15.1513 6.65332 15.0882L0.856627 11.1752C0.843335 11.1663 0.829743 11.1454 0.830199 11.1189C0.83155 11.0954 0.843434 11.0859 0.847507 11.0837L6.9201 7.91047C7.02452 7.8559 7.10058 7.75985 7.12926 7.64634L8.84669 0.848373L8.84697 0.847262Z" fill="#FFFFCD"/>
</svg>
