<svg width="136" height="171" viewBox="0 0 136 171" fill="none" xmlns="http://www.w3.org/2000/svg">
<g clip-path="url(#clip0_6_43)">
<path d="M86.8 169.378C62.5 163.278 51.1 145.078 52.3 114.078L52.7 101.778L47.6 113.878C44.9 120.478 42.2 125.778 41.7 125.578C41.2 125.478 33.6 105.278 24.9 80.8777C16.1 56.3777 7.7 32.6777 6 28.1777L3 19.8777H9.4H15.7L29.5 59.1777C49 114.578 47 109.678 48.5 106.778C49.2 105.478 56.9 87.9777 65.5 67.9777C81 32.1777 82.5 27.5777 80.7 21.8777C79.9 19.4777 79.9 19.3777 81.5 21.3777C84.6 25.1777 82.8 31.7777 71.6 57.8777C65.8 71.2777 61 82.4777 61 82.6777C61 82.9777 63.2 81.0777 65.9 78.5777C74.2 70.7777 85.1 66.3777 98.9 65.2777C106.7 64.5777 121.3 66.0777 127 67.9777C132.3 69.8777 129.7 69.9777 122.9 68.2777C119 67.1777 112.5 66.5777 106 66.5777C92.2 66.4777 85.9 68.7777 78 76.7777C69 85.8777 65.3 96.0777 64.3 114.378C63.6 127.778 65.5 138.978 70.1 148.878C76.2 162.178 86.9 169.078 102.3 169.678C107.2 169.878 113.2 169.778 115.6 169.378L120.1 168.778L119.8 153.078L119.5 137.378L110 136.778C103.2 136.378 105.9 136.278 119.5 136.278C130 136.178 137 136.378 135.3 136.578L132.1 136.978L131.8 152.178L131.5 167.278L127 168.678C120.4 170.778 94.1 171.178 86.8 169.378Z" fill="black"/>
<path d="M122.7 129.778C118.9 126.878 117.5 124.178 119 122.378C119.9 121.278 120.7 121.178 122.1 121.978C123.7 122.778 124.4 122.578 125.9 120.678C127.5 118.678 128 118.578 129.5 119.878C131.4 121.478 131 125.378 128.4 129.378C126.4 132.378 126.3 132.378 122.7 129.778Z" fill="black"/>
<path d="M4 9.27772C1.4 6.97772 0 4.77772 0 3.27772C0 0.277718 2.5 -0.922283 5.2 0.777717C6.7 1.67772 7.5 1.67772 8.6 0.777717C10.7 -0.922283 13 0.477718 13 3.47772C13 5.77772 9.6 12.8777 8.4 12.8777C8.2 12.8777 6.2 11.2777 4 9.27772Z" fill="black"/>
</g>
<defs>
<clipPath id="clip0_6_43">
<rect width="136" height="171" fill="white"/>
</clipPath>
</defs>
</svg>
